<svg id="Capa_1" enable-background="new 0 0 512 512" height="512" viewBox="0 0 512 512" width="512" xmlns="http://www.w3.org/2000/svg"><g><path d="m474.479 48.304h-7.209c-5.609-27.562-29.986-48.304-59.203-48.304s-53.595 20.742-59.203 48.304c-.792 3.915-1.212 7.963-1.212 12.111 0 15.102 5.539 28.906 14.698 39.495h112.13c7.124 0 13.579-2.89 18.248-7.559s7.559-11.117 7.559-18.248c-.001-14.247-11.56-25.799-25.808-25.799z" fill="#ddebfd"/><path d="m488.491 211.615c-7.286-7.286-17.362-11.795-28.474-11.795h-57.153c6.798-16.568 10.617-34.68 10.787-53.656.713-79.74-63.983-145.562-143.724-146.16-78.558-.59-142.772 61.347-145.842 139.008-.106 2.686-2.314 4.806-5.002 4.806-11.463.002-39.105.004-39.105.004-37.701 0-68.264 30.563-68.264 68.264s30.563 68.263 68.264 68.263h379.387c21.9 0 40.297-17.224 40.906-39.115.321-11.563-4.244-22.083-11.78-29.619z" fill="#ddebfd"/><path d="m488.491 211.615c-7.286-7.286-17.362-11.795-28.474-11.795h-36.361c11.112 0 21.188 4.509 28.474 11.795 7.536 7.536 12.101 18.056 11.779 29.62-.609 21.891-19.006 39.115-40.906 39.115h36.361c21.9 0 40.297-17.224 40.906-39.115.322-11.564-4.243-22.084-11.779-29.62z" fill="#bed9fd"/><path d="m377.289 146.164c-.154 17.236-3.319 33.759-8.993 49.06-.827 2.23.816 4.596 3.194 4.596h31.372c6.798-16.568 10.617-34.68 10.787-53.656.713-79.74-63.983-145.562-143.724-146.16-6.557-.049-13.011.347-19.341 1.142 71.724 9.048 127.367 71.037 126.705 145.018z" fill="#bed9fd"/><g fill="#75cff9"><path d="m433.048 421.342c-12.915 0-27.085-6.119-42.086-12.598-10.15-4.383-22.783-9.84-28.741-9.84-5.957 0-18.587 5.456-28.736 9.84-14.999 6.478-29.167 12.598-42.082 12.598s-27.083-6.12-42.083-12.598c-10.149-4.383-22.78-9.84-28.737-9.84-5.956 0-18.586 5.456-28.735 9.84-14.999 6.478-29.167 12.598-42.082 12.598s-27.082-6.12-42.081-12.598c-10.148-4.383-22.778-9.84-28.735-9.84-9.294 0-16.828-7.534-16.828-16.828s7.534-16.828 16.828-16.828c12.915 0 27.082 6.12 42.081 12.598 10.148 4.383 22.778 9.84 28.735 9.84s18.587-5.456 28.736-9.84c14.999-6.478 29.166-12.598 42.081-12.598s27.083 6.12 42.083 12.598c10.149 4.383 22.78 9.84 28.737 9.84s18.587-5.456 28.736-9.84c14.999-6.478 29.167-12.598 42.082-12.598s27.085 6.119 42.086 12.598c10.151 4.383 22.783 9.84 28.742 9.84 9.294 0 16.828 7.534 16.828 16.828s-7.535 16.828-16.829 16.828z"/><path d="m433.048 512c-12.915 0-27.085-6.119-42.086-12.598-10.15-4.383-22.783-9.84-28.741-9.84-5.957 0-18.587 5.456-28.736 9.84-14.999 6.478-29.167 12.598-42.081 12.598s-27.083-6.12-42.083-12.598c-10.149-4.383-22.78-9.84-28.737-9.84-5.956 0-18.586 5.456-28.735 9.84-15 6.478-29.167 12.598-42.082 12.598s-27.082-6.12-42.081-12.598c-10.148-4.383-22.778-9.84-28.735-9.84-9.294 0-16.828-7.534-16.828-16.828s7.534-16.828 16.828-16.828c12.915 0 27.082 6.12 42.081 12.598 10.148 4.383 22.778 9.84 28.735 9.84s18.587-5.456 28.736-9.84c14.999-6.478 29.166-12.598 42.081-12.598s27.083 6.12 42.083 12.598c10.149 4.383 22.78 9.84 28.737 9.84s18.587-5.456 28.736-9.84c14.999-6.478 29.167-12.598 42.082-12.598s27.085 6.119 42.086 12.598c10.151 4.383 22.783 9.84 28.742 9.84 9.294 0 16.828 7.534 16.828 16.828-.001 9.294-7.536 16.828-16.83 16.828z"/></g></g></svg>