<svg id="Layer_1" enable-background="new 0 0 512.021 512.021" height="512" viewBox="0 0 512.021 512.021" width="512" xmlns="http://www.w3.org/2000/svg"><g><g fill="#9af9ff"><path d="m311.998 456.021c-11.758 0-19.652-12.453-14.299-23.159l32-64c3.952-7.904 13.564-11.107 21.466-7.156 7.904 3.952 11.107 13.563 7.156 21.466l-32 64c-2.803 5.607-8.454 8.849-14.323 8.849z"/><path d="m455.998 456.021c-11.758 0-19.652-12.453-14.299-23.159l32-64c3.952-7.904 13.563-11.107 21.466-7.156 7.904 3.952 11.107 13.563 7.156 21.466l-32 64c-2.803 5.607-8.454 8.849-14.323 8.849z"/><path d="m167.998 456.021c-11.758 0-19.652-12.453-14.299-23.159l32-64c3.951-7.904 13.564-11.107 21.466-7.156 7.904 3.952 11.107 13.563 7.156 21.466l-32 64c-2.803 5.607-8.454 8.849-14.323 8.849z"/><path d="m23.998 456.021c-11.758 0-19.652-12.453-14.299-23.159l32-64c3.951-7.904 13.564-11.107 21.466-7.156 7.904 3.952 11.107 13.563 7.156 21.466l-32 64c-2.803 5.607-8.454 8.849-14.323 8.849z"/><path d="m215.998 512.021c-11.758 0-19.652-12.453-14.299-23.159l32-64c3.952-7.904 13.563-11.107 21.466-7.156 7.904 3.952 11.107 13.563 7.156 21.466l-32 64c-2.803 5.607-8.454 8.849-14.323 8.849z"/><path d="m359.998 512.021c-11.758 0-19.652-12.453-14.299-23.159l32-64c3.952-7.904 13.563-11.107 21.466-7.156 7.904 3.952 11.107 13.563 7.156 21.466l-32 64c-2.803 5.607-8.454 8.849-14.323 8.849z"/><path d="m71.998 512.021c-11.758 0-19.652-12.453-14.299-23.159l32-64c3.952-7.904 13.563-11.107 21.466-7.156 7.904 3.952 11.107 13.563 7.156 21.466l-32 64c-2.803 5.607-8.454 8.849-14.323 8.849z"/></g><path d="m512.01 249.017c0 48.52-39.48 88-88 88h-312c-61.76 0-112-50.24-112-112 0-52.9 36.98-98.317 88.08-109.44 2.34-64.12 55.24-115.56 119.92-115.56 48.544 0 89.509 28.545 108.62 69 62.788-18.687 124.671 29.787 123.37 93.46 40.92 7.54 72.01 43.48 72.01 86.54z" fill="#e2e0e0"/><path d="m314.66 65.057c-9.386-.32-19.912.949-30.03 3.96-17.228-36.469-51.78-62.543-92.57-67.94 50.683-6.796 99.357 19.043 122.6 63.98z" fill="#cecccc"/><path d="m512.01 249.017c0 48.52-39.48 88-88 88h-32c48.52 0 88-39.48 88-88 0-43.06-31.09-79-72.01-86.54.953-46.633-33.027-88.191-79.94-96.11 59.354-10.136 113.149 36.95 111.94 96.11 40.92 7.54 72.01 43.48 72.01 86.54z" fill="#cecccc"/></g></svg>