<svg id="Layer_1" enable-background="new 0 0 512 512" height="512" viewBox="0 0 512 512" width="512" xmlns="http://www.w3.org/2000/svg"><g><path d="m512 249.05c0 22.46-8.82 45.65-24.21 63.63-13.53 15.81-30.37 25.76-48.32 28.73-3.78.64-7.6.96-11.46.96h-317.66c-60.85 0-110.35-49.5-110.35-110.35 0-27.66 10.28-54.12 28.95-74.5 17.34-18.94 40.5-31.14 65.7-34.73 9.2-33.81 29.2-64.31 56.73-86.34 24.82-19.87 55.04-32.19 86.56-35.53 5.77-.61 11.59-.92 17.42-.92 36.59 0 71.3 11.64 100.4 33.67 26.2 19.83 46.22 47.42 56.95 78.29 3.73-.75 7.52-1.12 11.34-1.12 31.86 0 57.79 25.92 57.79 57.79 0 4.92-.61 9.77-1.83 14.47 20.13 15.89 31.99 40.14 31.99 65.95z" fill="#eaf3f9"/><path d="m512 249.05c0 22.46-8.82 45.65-24.21 63.63-13.53 15.81-30.37 25.76-48.32 28.73 2.15-2.1 4.25-4.35 6.27-6.71 16.69-19.5 26.26-44.67 26.26-69.04 0-27.99-12.87-54.31-34.71-71.55 1.32-5.1 1.99-10.36 1.99-15.7 0-34.57-28.13-62.7-62.7-62.7-4.15 0-8.26.41-12.3 1.22-11.65-33.49-33.37-63.43-61.79-84.94-19.51-14.77-41.34-25.23-64.55-31.07 5.77-.61 11.59-.92 17.42-.92 36.59 0 71.3 11.64 100.4 33.67 26.2 19.83 46.22 47.42 56.95 78.29 3.73-.75 7.52-1.12 11.34-1.12 31.86 0 57.79 25.92 57.79 57.79 0 4.92-.61 9.77-1.83 14.47 20.13 15.89 31.99 40.14 31.99 65.95z" fill="#d2e8f7"/><g><g fill="#eaf3f9"><circle cx="68.191" cy="400.506" r="22.51"/><circle cx="453.485" cy="391.108" r="22.51"/><circle cx="302.289" cy="489.49" r="22.51"/></g><path d="m213.155 398.618c-17.929 0-32.516 14.587-32.516 32.517s14.587 32.516 32.516 32.516c17.93 0 32.517-14.586 32.517-32.516s-14.587-32.517-32.517-32.517z" fill="#d2e8f7"/><circle cx="342.315" cy="395.168" fill="#d2e8f7" r="32.517"/></g><g fill="#b8d3e8"><g><path d="m177.872 145.392c-29.258 0-53.062 23.804-53.062 53.062 0 4.142 3.357 7.5 7.5 7.5s7.5-3.358 7.5-7.5c0-20.987 17.074-38.062 38.062-38.062 4.143 0 7.5-3.358 7.5-7.5s-3.357-7.5-7.5-7.5z"/><path d="m394.1 222.286c-4.143 0-7.5 3.358-7.5 7.5 0 24.418-19.866 44.284-44.284 44.284-4.143 0-7.5 3.358-7.5 7.5s3.357 7.5 7.5 7.5c32.689 0 59.284-26.595 59.284-59.284 0-4.142-3.358-7.5-7.5-7.5z"/><path d="m290.426 55.221c-4.143 0-7.5 3.358-7.5 7.5s3.357 7.5 7.5 7.5c10.683 0 19.373 8.691 19.373 19.374 0 4.142 3.357 7.5 7.5 7.5s7.5-3.358 7.5-7.5c0-18.954-15.42-34.374-34.373-34.374z"/></g><g><path d="m148.384 370.791c-2.929 2.923-2.928 7.663 0 10.586 2.929 2.923 7.677 2.924 10.606 0s2.928-7.663 0-10.586-7.677-2.923-10.606 0z"/><path d="m119.414 457.025c-2.929 2.923-2.928 7.663 0 10.586 2.929 2.923 7.677 2.923 10.606 0s2.928-7.663 0-10.586c-2.928-2.924-7.677-2.924-10.606 0z"/><path d="m416.994 446.825c-2.929 2.923-2.928 7.663 0 10.586s7.677 2.923 10.606 0 2.928-7.663 0-10.586c-2.928-2.924-7.677-2.924-10.606 0z"/></g></g></g></svg>